<svg width="22" height="22" fill="none" xmlns="http://www.w3.org/2000/svg"><path d="M16.045 0H5.955A5.962 5.962 0 000 5.955v10.09A5.962 5.962 0 005.955 22h10.09A5.962 5.962 0 0022 16.045V5.955A5.962 5.962 0 0016.045 0zM11 17.015A6.022 6.022 0 014.985 11 6.022 6.022 0 0111 4.985 6.022 6.022 0 0117.015 11 6.022 6.022 0 0111 17.015zm6.16-10.612a1.78 1.78 0 01-1.778-1.777c0-.98.797-1.778 1.777-1.778.98 0 1.778.797 1.778 1.778a1.78 1.78 0 01-1.778 1.777z" fill="#BFBFC7"/><path d="M11 7.333A3.67 3.67 0 007.333 11 3.67 3.67 0 0011 14.666 3.67 3.67 0 0014.666 11 3.67 3.67 0 0011 7.333zm6.159-3.195a.488.488 0 10.001.976.488.488 0 00-.001-.976z" fill="#BFBFC7"/></svg>